# AST/ASF file generated using VICON BodyLanguage
# -----------------------------------------------
:version 1.10
:name VICON
:units
  mass 1.0
  length 0.45
  angle deg
:documentation
   .ast/.asf automatically generated from VICON data using
   VICON BodyBuilder and BodyLanguage model FoxedUp or BRILLIANT.MOD
:root
   order TX TY TZ RX RY RZ
   axis XYZ
   position 0 0 0  
   orientation 0 0 0 
:bonedata
  begin
     id 1 
     name lhipjoint
     direction 0.610259 -0.730986 0.305356 
     length 2.50941 
     axis 0 0 0  XYZ
  end
  begin
     id 2 
     name lfemur
     direction 0.34202 -0.939693 0  
     length 7.48822  
     axis 0 0 20  XYZ
    dof rx ry rz
    limits (-160.0 20.0)
           (-70.0 70.0)
           (-60.0 70.0)
  end
  begin
     id 3 
     name ltibia
     direction 0.34202 -0.939693 0   
     length 7.60141   
     axis 0 0 20   XYZ
    dof rx
    limits (-10.0 170.0)
  end
  begin
     id 4 
     name lfoot
     direction 0.0673488 -0.185039 0.980421   
     length 2.04049   
     axis -90 7.62852e-016 20   XYZ
    dof rx rz
    limits (-45.0 90.0)
           (-70.0 20.0)
  end
  begin
     id 5 
     name ltoes
     direction 1.5356e-011 -4.21729e-011 1   
     length 1.02897   
     axis -90 7.62852e-016 20   XYZ
    dof rx
    limits (-90.0 20.0)
  end
  begin
     id 6 
     name rhipjoint
     direction -0.57612 -0.754205 0.315056   
     length 2.43216  
     axis 0 0 0  XYZ 
  end
  begin
     id 7 
     name rfemur
     direction -0.34202 -0.939693 0   
     length 7.42799   
     axis 0 0 -20   XYZ
    dof rx ry rz
    limits (-160.0 20.0)
           (-70.0 70.0)
           (-70.0 60.0)
  end
  begin
     id 8 
     name rtibia
     direction -0.34202 -0.939693 0   
     length 7.69484   
     axis 0 0 -20   XYZ
    dof rx
    limits (-10.0 170.0)
 end
 begin
     id 9 
     name rfoot
     direction -0.111837 -0.30727 0.945028   
     length 2.15769  
     axis -90 -7.62852e-016 -20   XYZ
    dof rx rz
    limits (-45.0 90.0)
           (-20.0 70.0)
  end
  begin
     id 10 
     name rtoes
     direction -1.53539e-011 -4.21878e-011 1   
     length 1.07391   
     axis -90 -7.62852e-016 -20   XYZ
    dof rx
    limits (-90.0 20.0)
  end
  begin
     id 11 
     name lowerback
     direction 0.00552624 0.990109 -0.140195   
     length 2.12403   
     axis 0 0 0   XYZ
    dof rx ry rz
    limits (-20.0 45.0)
           (-30.0 30.0)
           (-30.0 30.0)
  end
  begin
     id 12 
     name upperback
     direction 0.00361898 0.999976 -0.00584723   
     length 2.13232   
     axis 0 0 0   XYZ
    dof rx ry rz
    limits (-20.0 45.0)
           (-30.0 30.0)
           (-30.0 30.0)
  end
  begin
     id 13 
     name thorax
     direction -0.000331275 0.998253 0.0590847   
     length 2.17688   
     axis 0 0 0   XYZ
    dof rx ry rz
    limits (-20.0 45.0)
           (-30.0 30.0)
           (-30.0 30.0)
  end
  begin
     id 14 
     name lowerneck
     direction -0.0561561 0.979832 0.19177   
     length 1.64159   
     axis 0 0 0   XYZ
    dof rx ry rz
    limits (-20.0 45.0)
           (-30.0 30.0)
           (-30.0 30.0)
  end
  begin
     id 15 
     name upperneck
     direction 0.0827153 0.979385 -0.184293   
     length 1.68939   
     axis 0 0 0   XYZ
    dof rx ry rz
    limits (-20.0 45.0)
           (-30.0 30.0)
           (-30.0 30.0)
  end
  begin
     id 16
     name head
     direction 0.0278583 0.995936 -0.0856488  
     length 1.70207  
     axis 0 0 0   XYZ
    dof rx ry rz
    limits (-20.0 45.0)
           (-30.0 30.0)
           (-30.0 30.0)
  end
  begin
     id 17 
     name lclavicle
     direction 0.950993 0.301131 -0.0702275  
     length 3.41652  
     axis 0 0 0   XYZ
    dof ry rz
    limits (-20.0 10.0)
           (0.0 20.0)
  end
  begin
     id 18 
     name lhumerus
     direction 1 -4.48981e-011 -3.9662e-029   
     length 5.32955   
     axis 180 -30 -90   XYZ
    dof rx ry rz
    limits (-60.0 90.0)
           (-90.0 90.0)
           (-90.0 90.0)
  end
  begin
     id 19
     name lradius
     direction 1 -4.48925e-011 -9.0549e-027   
     length 3.69232   
     axis 180 -30 -90   XYZ
    dof rx
    limits (-10.0 170.0)
  end
  begin
     id 20
     name lwrist
     direction 1 -4.49007e-011 -1.49005e-026   
     length 1.84616   
     axis 9.0955e-015 90 90   XYZ
    dof ry
    limits (-180.0 0.0)
 end
  begin
     id 21 
     name lhand
     direction 1 -4.49016e-011 -2.98023e-026   
     length 0.536598   
     axis 1.90115e-014 90 90   XYZ
    dof rx rz
    limits (-90.0 90.0)
           (-45.0 45.0)
  end
  begin
     id 22 
     name lfingers
     direction 1 -4.48924e-011 -5.9578e-026   
     length 0.432619   
     axis 3.80223e-014 90 90   XYZ
    dof rx
    limits (0.0 90.0)
  end
  begin
     id 23
     name lthumb
     direction 0.707107 -6.34947e-011 0.707107   
     length 0.621157   
     axis -90 45 -3.84942e-014   XYZ
    dof rx rz
    limits (-45.0 45.0)
           (-45.0 45.0)
  end
  begin
     id 24 
     name rclavicle
     direction -0.955495 0.276497 -0.102848   
     length 3.36357  
     axis 0 0 0   XYZ 
    dof ry rz
    limits (-10.0 20.0)
           (-20.0 0.0)
  end
  begin
     id 25 
     name rhumerus
     direction -1 -4.48961e-011 3.30983e-027  
     length 5.23431   
     axis 180 30 90   XYZ
    dof rx ry rz
    limits (-90.0 60.0)
           (-90.0 90.0)
           (-90.0 90.0)
  end
  begin
     id 26 
     name rradius
     direction -1 -4.48965e-011 -6.63263e-027   
     length 3.55301   
     axis 180 30 90   XYZ
    dof rx
    limits (-10.0 170.0)
  end
  begin
     id 27 
     name rwrist
     direction -1 -4.48942e-011 -1.48958e-026   
     length 1.77651   
     axis 9.0955e-015 -90 -90   XYZ
    dof ry
    limits (-180.0 0.0)
  end
  begin
     id 28
     name rhand
     direction -1 -4.48977e-011 -2.97966e-026   
     length 0.772522   
     axis 1.90115e-014 -90 -90   XYZ
    dof rx rz
    limits (-90.0 90.0)
           (-45.0 45.0)
  end
  begin
     id 29
     name rfingers
     direction -1 -4.49135e-011 -5.96389e-026   
     length 0.622827   
     axis 3.80223e-014 -90 -90   XYZ
    dof rx
    limits (0.0 90.0)
  end
  begin
     id 30
     name rthumb
     direction -0.707107 -6.34969e-011 0.707107   
     length 0.894259   
     axis -90 -45 3.84942e-014   XYZ
    dof rx rz
    limits (-45.0 45.0)
           (-45.0 45.0)
  end
:hierarchy
  begin
    root lhipjoint rhipjoint lowerback
    lhipjoint lfemur
    lfemur ltibia
    ltibia lfoot
    lfoot ltoes
    rhipjoint rfemur
    rfemur rtibia
    rtibia rfoot
    rfoot rtoes
    lowerback upperback
    upperback thorax
    thorax lowerneck lclavicle rclavicle
    lowerneck upperneck
    upperneck head
    lclavicle lhumerus
    lhumerus lradius
    lradius lwrist
    lwrist lhand lthumb
    lhand lfingers
    rclavicle rhumerus
    rhumerus rradius
    rradius rwrist
    rwrist rhand rthumb
    rhand rfingers
  end

#!OML:ASF F:\VICON\USERDATA\INSTALL\rory3\rory3.ASF
:FULLY-SPECIFIED
:DEGREES
1
root -11.6099 17.8921 -11.9185 177.436 10.4156 179.938
lowerback 12.1313 -2.40915 2.04976
upperback 2.21356 -2.28242 4.48338
thorax -4.37702 -0.951007 3.89306
lowerneck 7.48062 -26.2738 -15.8186
upperneck 29.9105 -37.8246 15.5016
head 15.9236 -16.4957 2.74866
rclavicle -7.43455e-014 -2.38542e-014
rhumerus -14.9998 -1.92707 -87.2781
rradius 31.3528
rwrist 6.01688
rhand -14.9268 5.37417
rfingers 7.12502
rthumb 11.2353 -24.305
lclavicle -7.43455e-014 -2.38542e-014
lhumerus -41.6955 11.1605 77.0706
lradius 27.423
lwrist -5.47027
lhand -17.97 28.0045
lfingers 7.12502
lthumb 8.29932 57.8215
rfemur 7.7289 2.11678 21.962
rtibia 24.0754
rfoot -14.816 4.32711
rtoes -3.33371
lfemur -19.3681 -3.37665 -16.0016
ltibia 22.4839
lfoot 0.335919 -12.2539
ltoes -11.1278
2
root -11.6012 17.8816 -11.7631 177.328 10.8796 179.749
lowerback 12.3428 -2.30129 1.77626
upperback 2.30694 -2.17184 4.42569
thorax -4.39219 -0.893467 3.97612
lowerneck 7.35043 -26.1483 -15.7823
upperneck 29.9957 -37.644 15.4567
head 15.9294 -16.4066 2.76373
rclavicle 2.38542e-014 -6.36111e-015
rhumerus -15.064 -1.53425 -87.3613
rradius 31.361
rwrist 5.95436
rhand -15.104 5.52635
rfingers 7.12502
rthumb 11.0644 -24.162
lclavicle 2.38542e-014 -6.36111e-015
lhumerus -41.4059 11.6046 76.9882
lradius 27.0708
lwrist -5.8514
lhand -18.1082 27.609
lfingers 7.12502
lthumb 8.16588 57.4312
rfemur 7.10198 2.42699 21.9741
rtibia 24.4598
rfoot -15.1603 3.9378
rtoes -4.25196
lfemur -19.3859 -3.09431 -15.9472
ltibia 23.0809
lfoot -2.42478 -13.5928
ltoes -14.4843
3
root -11.5957 17.8774 -11.6149 177.163 11.2971 179.67
lowerback 12.5531 -2.24797 1.67933
upperback 2.45335 -2.10471 4.36849
thorax -4.35608 -0.856441 3.96443
lowerneck 7.13551 -26.0603 -15.7392
upperneck 30.1356 -37.5304 15.4099
head 15.9924 -16.3339 2.74573
rclavicle 9.10434e-014 -9.38264e-014
rhumerus -15.0494 -1.11705 -87.439
rradius 31.3376
rwrist 5.87331
rhand -14.9133 5.79202
rfingers 7.12502
rthumb 11.2484 -23.8864
lclavicle 9.10434e-014 -9.38264e-014
lhumerus -41.0597 11.9099 76.9787
lradius 26.7472
lwrist -6.06247
lhand -18.405 27.2061
lfingers 7.12502
lthumb 7.87946 57.0393
rfemur 6.54711 2.72588 22.0545
rtibia 24.8346
rfoot -15.3267 3.86425
rtoes -3.06673
lfemur -19.3278 -2.7926 -15.8338
ltibia 24.0091
lfoot -6.2202 -13.9074
ltoes -22.2059
4
root -11.5932 17.8812 -11.4715 176.973 11.5236 179.558
lowerback 12.7797 -2.24343 1.63816
upperback 2.5668 -2.096 4.28656
thorax -4.36331 -0.849391 3.906
lowerneck 6.83592 -26.0246 -15.6128
upperneck 30.4235 -37.447 15.1685
head 16.0728 -16.2635 2.63606
rclavicle 1.68967e-014 4.77083e-014
rhumerus -15.1273 -0.941911 -87.4641
rradius 31.3873
rwrist 5.90562
rhand -14.4678 5.88483
rfingers 7.12502
rthumb 11.678 -23.7697
lclavicle 1.68967e-014 4.77083e-014
lhumerus -40.8483 12.1324 77.043
lradius 26.6276
lwrist -6.22488
lhand -18.3459 27.3874
lfingers 7.12502
lthumb 7.93645 57.2185
rfemur 6.00076 2.9013 22.0773
rtibia 25.2296
rfoot -15.4801 3.7545
rtoes -1.45096
lfemur -19.1355 -2.65784 -15.8102
ltibia 25.0449
lfoot -7.78163 -13.6357
ltoes -23.285
5
root -11.5931 17.8834 -11.3299 176.741 11.6906 179.372
lowerback 12.9622 -2.25189 1.54121
upperback 2.6767 -2.11678 4.19372
thorax -4.34648 -0.857408 3.87053
lowerneck 6.73332 -25.9313 -15.5163
upperneck 30.5157 -37.3006 15.1153
head 16.0684 -16.183 2.64054
rclavicle -1.82882e-014 1.90833e-014
rhumerus -15.257 -0.811238 -87.4702
rradius 31.3986
rwrist 5.97669
rhand -14.4286 5.81074
rfingers 7.12502
rthumb 11.7158 -23.8416
lclavicle -1.82882e-014 1.90833e-014
lhumerus -40.6467 12.0797 77.3138
lradius 26.5701
lwrist -5.94502
lhand -18.2759 27.7692
lfingers 7.12502
lthumb 8.00403 57.5977
rfemur 5.51845 3.14671 22.0636
rtibia 25.6089
rfoot -15.7021 3.35452
rtoes -0.600422
lfemur -18.9085 -2.58102 -15.9075
ltibia 26.3378
lfoot -6.29236 -13.1218
ltoes -12.4069
6
root -11.5934 17.8854 -11.1907 176.418 11.8039 179.086
lowerback 13.1368 -2.26012 1.37985
upperback 2.80685 -2.14968 4.07033
thorax -4.30175 -0.871457 3.84021
lowerneck 6.92763 -25.7787 -15.6952
upperneck 30.3703 -37.1496 15.4228
head 16.0655 -16.1329 2.82646
rclavicle -1.82882e-014 -1.43125e-014
rhumerus -15.451 -0.735801 -87.4164
rradius 31.4529
rwrist 5.92282
rhand -14.3921 5.9715
rfingers 7.12502
rthumb 11.751 -23.6789
lclavicle -1.82882e-014 -1.43125e-014
lhumerus -40.2987 11.8989 77.6282
lradius 26.2394
lwrist -5.8124
lhand -18.442 27.4927
lfingers 7.12502
lthumb 7.84376 57.3272
rfemur 5.15386 3.25075 21.9043
rtibia 25.9663
rfoot -15.9079 3.0587
rtoes 0.152377
lfemur -18.6292 -2.3719 -16.1708
ltibia 27.9173
lfoot -8.5316 -11.7873
ltoes -20.5371
7
root -11.5935 17.8929 -11.0546 176.106 11.7826 178.784
lowerback 13.3832 -2.31845 1.14809
upperback 2.8181 -2.25459 4.00003
thorax -4.41212 -0.920657 3.92542
lowerneck 7.17367 -25.6718 -16.024
upperneck 30.4288 -37.0147 15.444
head 16.1065 -16.1158 2.92094
rclavicle -8.54774e-015 2.54444e-014
rhumerus -15.8791 -0.542731 -87.2515
rradius 31.6251
rwrist 5.68276
rhand -14.229 5.99152
rfingers 7.12502
rthumb 11.9083 -23.6498
lclavicle -8.54774e-015 2.54444e-014
lhumerus -40.2025 11.8145 77.9505
lradius 26.0373
lwrist -5.88496
lhand -18.6373 27.2226
lfingers 7.12502
lthumb 7.65528 57.064
rfemur 4.79486 3.1542 21.6878
rtibia 26.2965
rfoot -15.9495 2.9174
rtoes -0.00930674
lfemur -18.409 -2.23439 -16.4802
ltibia 29.7825
lfoot -8.4093 -10.5347
ltoes -17.1138
8
root -11.594 17.8987 -10.9206 175.959 11.7478 178.687
lowerback 13.5467 -2.44051 1.05883
upperback 2.78195 -2.42238 3.99231
thorax -4.52611 -1.00144 4.00523
lowerneck 7.18129 -25.6274 -16.0828
upperneck 30.6658 -36.8902 15.1242
head 16.1135 -16.0812 2.84657
rclavicle -9.93923e-016 6.36111e-015
rhumerus -16.3165 -0.330475 -87.1513
rradius 31.7956
rwrist 5.53983
rhand -14.1185 5.70361
rfingers 7.12502
rthumb 12.0148 -23.9315
lclavicle -9.93923e-016 6.36111e-015
lhumerus -40.2246 11.8188 78.23
lradius 26.032
lwrist -5.78028
lhand -18.626 26.9095
lfingers 7.12502
lthumb 7.66618 56.7506
rfemur 4.29854 3.09007 21.6857
rtibia 26.5957
rfoot -15.847 2.77852
rtoes -0.0825441
lfemur -18.3916 -2.08403 -16.5771
ltibia 31.8603
lfoot -8.79131 -9.58406
ltoes -16.5184
9
root -11.5937 17.9026 -10.7905 175.904 11.7253 178.721
lowerback 13.5102 -2.5688 1.0839
upperback 2.83141 -2.58555 4.00062
thorax -4.445 -1.08084 4.02371
lowerneck 7.06337 -25.6243 -15.9472
upperneck 30.789 -36.8384 14.8947
head 16.083 -16.0556 2.75684
rclavicle -4.77083e-015 9.54166e-015
rhumerus -16.5445 -0.197235 -87.0709
rradius 31.8734
rwrist 5.42336
rhand -13.8485 5.72719
rfingers 7.12502
rthumb 12.2752 -23.8925
lclavicle -4.77083e-015 9.54166e-015
lhumerus -39.9858 11.4674 78.6762
lradius 25.8767
lwrist -5.21546
lhand -19.1337 26.3962
lfingers 7.12502
lthumb 7.17609 56.2545
rfemur 3.77134 3.04761 21.8296
rtibia 26.8527
rfoot -15.7675 2.55363
rtoes 0.175268
lfemur -18.4465 -1.93052 -16.5385
ltibia 34.0902
lfoot -9.29225 -8.61381
ltoes -16.948
10
root -11.5965 17.9105 -10.6645 175.808 11.7044 178.745
lowerback 13.4992 -2.69284 1.11099
upperback 2.86684 -2.73864 4.03577
thorax -4.39199 -1.15427 4.06937
lowerneck 7.02471 -25.5771 -15.9052
upperneck 30.8212 -36.7457 14.7881
head 16.0429 -16.0211 2.73783
rclavicle 2.38542e-015 -3.18055e-015
rhumerus -16.8024 -0.105702 -86.893
rradius 31.8358
rwrist 5.3016
rhand -13.8427 5.81063
rfingers 7.12502
rthumb 12.2808 -23.8088
lclavicle 2.38542e-015 -3.18055e-015
lhumerus -39.7876 11.3391 79.1189
lradius 25.7412
lwrist -4.81572
lhand -20.0237 25.9975
lfingers 7.12502
lthumb 6.31695 55.8833
rfemur 3.33797 2.96054 21.9439
rtibia 27.0812
rfoot -15.7976 2.36609
rtoes 0.196522
lfemur -18.3862 -1.68102 -16.5298
ltibia 36.3747
lfoot -9.7515 -7.67646
ltoes -16.6066
11
root -11.6015 17.92 -10.5405 175.722 11.6715 178.794
lowerback 13.5099 -2.81953 1.19342
upperback 2.85112 -2.88769 4.07491
thorax -4.40764 -1.22661 4.0904
lowerneck 7.00412 -25.5482 -15.786
upperneck 30.8151 -36.6502 14.6058
head 15.9363 -15.9913 2.69295
rclavicle 2.72335e-014 -4.45278e-014
rhumerus -17.1678 -0.330481 -86.6624
rradius 31.7472
rwrist 5.47366
rhand -13.874 5.67862
rfingers 7.12502
rthumb 12.2506 -23.9426
lclavicle 2.72335e-014 -4.45278e-014
lhumerus -39.6849 11.5212 79.3985
lradius 25.6676
lwrist -4.91102
lhand -20.3009 25.7822
lfingers 7.12502
lthumb 6.0493 55.6758
rfemur 2.91644 2.99257 22.1061
rtibia 27.2672
rfoot -15.7264 2.13735
rtoes 0.205251
lfemur -18.2754 -1.29836 -16.4961
ltibia 38.6051
lfoot -9.61943 -7.29544
ltoes -14.3719
